<?xml version="1.0" encoding="UTF-8"?>
<!DOCTYPE svg PUBLIC "-//W3C//DTD SVG 1.1//EN" "http://www.w3.org/Graphics/SVG/1.1/DTD/svg11.dtd">
<!-- Creator: CorelDRAW 2020 (64 Bit Versão de avaliação) -->
<svg xmlns="http://www.w3.org/2000/svg" xml:space="preserve" width="536mm" height="575.5mm" version="1.1" style="shape-rendering:geometricPrecision; text-rendering:geometricPrecision; image-rendering:optimizeQuality; fill-rule:evenodd; clip-rule:evenodd"
viewBox="0 0 53600 57550"
 xmlns:xlink="http://www.w3.org/1999/xlink"
 xmlns:xodm="http://www.corel.com/coreldraw/odm/2003">
 <defs>
  <style type="text/css">
   <![CDATA[
    .str2 {stroke:#FEFEFE;stroke-width:250;stroke-miterlimit:22.9256}
    .str0 {stroke:#373435;stroke-width:250;stroke-miterlimit:22.9256}
    .str1 {stroke:#373435;stroke-width:250;stroke-miterlimit:22.9256}
    .fil3 {fill:none}
    .fil2 {fill:#FEFEFE}
    .fil5 {fill:#BDBFC1}
    .fil4 {fill:#373435}
    .fil6 {fill:#84716B}
    .fil7 {fill:#ED3237}
    .fil1 {fill:#6BB08D}
    .fil0 {fill:#BF7B3A;fill-opacity:0.458824}
   ]]>
  </style>
   <clipPath id="id0">
    <path d="M-5.47 3.2l53600 0 0 57550 -53600 0 0 -57550z"/>
   </clipPath>
 </defs>
 <g id="Camada_x0020_1">
  <metadata id="CorelCorpID_0Corel-Layer"/>
  <g>
  </g>
  <g style="clip-path:url(#id0)">
   <g>
    <g id="_2471398121152">
     <g>
      <path class="fil0" d="M62423.54 55492.54l-463.03 0c-353.23,-1016.99 -1052.01,-3277.1 -1052.01,-5238.83 0,-1961.74 698.87,-4221.98 1052.01,-5238.83l463.03 0c478.49,0 866.31,-387.91 866.31,-866.31 0,-478.4 -387.78,-866.31 -866.31,-866.31l-6537.2 0.04c478.49,0 866.31,-387.91 866.31,-866.31 0,-478.4 -387.78,-866.31 -866.31,-866.31l-93.86 0c-854.65,-909.15 -1577.31,-1927.76 -2147.78,-3035.01 -219.2,-425.25 -741.75,-592.35 -1166.96,-373.24 -425.25,219.2 -592.43,741.62 -373.24,1166.96 406.65,789.1 883.04,1537.45 1420.14,2241.29l-40128.05 0c-2369.21,0 -4296.62,-1927.45 -4296.62,-4296.61l0 -9690.18c0,-2369.21 1927.45,-4296.62 4296.62,-4296.62l25377.58 0 0 3128.74c0,514.34 310.96,963.7 792.24,1145.04 336.02,144.9 950.43,91.75 1350.61,-337.3l945.58 -1075.9 945.44 1075.82c339.48,386.42 869.98,518.84 1350.7,337.42 481.15,-181.29 792.24,-630.82 792.24,-1145.04l0 -3128.73 8569.86 -0.05c-1999.64,2615.31 -3083.66,5797.2 -3083.66,9141.55 0,887.32 77.78,1776.87 230.99,2643.74 74.28,420.14 439.79,715.64 852.07,715.64 50.05,0 100.88,-4.41 151.94,-13.41 471.11,-83.33 785.43,-532.82 702.23,-1003.92 -135.78,-767.61 -204.66,-1555.48 -204.66,-2342.05 0,-3423.97 1283,-6655.99 3620.16,-9141.55l96.43 0c478.49,0 866.31,-387.91 866.31,-866.31 0,-478.49 -387.78,-866.31 -866.31,-866.31l6240.31 0c478.49,0 866.31,-387.91 866.31,-866.31 0,-478.49 -387.78,-866.31 -866.31,-866.31l-362.23 0.04c-323.8,-940.81 -930.91,-2935.61 -930.91,-4669.71 0,-1733.98 607.11,-3728.9 930.91,-4669.63l362.23 -0.05c478.49,0 866.31,-387.91 866.31,-866.31 0,-478.4 -387.78,-866.31 -866.31,-866.31l-983.58 0.04c-1.13,0 -2.31,0 -3.45,0l-5369.41 0c352.66,0 670.08,-213.65 802.76,-540.46 132.64,-326.68 54.07,-701.18 -198.75,-946.97 -704.29,-685.02 -1092.33,-1602.39 -1092.33,-2582.86 0,-980.48 387.91,-1897.84 1092.33,-2582.86 502.55,-461.2 226.27,-1503.69 -604.1,-1487.4l-39085.34 0.05c-478.49,0 -866.31,387.91 -866.31,866.31 0,478.4 387.91,866.31 866.31,866.31l37401.11 0c-351.05,718.39 -536.75,1512.72 -536.75,2337.54 0,824.82 185.13,1619.25 536.18,2337.55l-45847.81 -0.04c-1288.99,0 -2337.55,-1048.65 -2337.55,-2337.55 0,-1288.9 1048.65,-2337.54 2337.55,-2337.54l4043.43 0.04c478.49,0 866.31,-387.91 866.31,-866.31 0,-478.4 -387.9,-866.31 -866.31,-866.31l-4043.43 0c-2244.39,0 -4070.26,1825.86 -4070.26,4070.25 0,2244.39 1825.87,4070.25 4070.26,4070.25l8081.89 0c-3530.27,0 -6402.34,2872.07 -6402.34,6402.34 0,3530.28 2872.07,6402.34 6402.34,6402.34l-2922.81 0c-3324.57,0 -6029.24,2704.62 -6029.24,6029.24l0 9689.96c0,3324.57 2704.62,6029.23 6029.24,6029.23l-2298.46 -0.04c-3844.11,0 -6971.54,3127.43 -6971.54,6971.54 0,3844.11 3127.43,6971.54 6971.54,6971.54l36449.77 0.04c478.49,0 866.31,-387.91 866.31,-866.31 0,-478.4 -387.78,-866.31 -866.31,-866.31l-36449.77 0c-2888.71,0 -5238.83,-2350.12 -5238.83,-5238.83 0,-2888.71 2350.12,-5238.83 5238.83,-5238.83l49034.07 0c-404.9,1261.95 -956.45,3330.81 -956.45,5238.83 0,1908.01 551.64,3977.01 956.45,5238.83l-8144.39 0c-478.49,0 -866.31,387.91 -866.31,866.31 0,478.4 387.78,866.31 866.31,866.31l10435.73 0c478.49,0 866.31,-387.91 866.31,-866.31 0,-478.4 -387.78,-866.4 -866.31,-866.4l0 -0.04zm-19737.65 -31053.63c-208.11,-236.75 -508.19,-372.45 -823.34,-372.45 -315.15,0 -615.18,135.65 -823.42,372.54l-532.25 605.62 0 -10483.69 2711.35 0 0 10483.69 -532.34 -605.71zm-31036.12 -9307.6c0,-2574.86 2094.85,-4669.63 4669.63,-4669.63l43619.02 0.05c-365.02,1157.48 -837.74,2982.21 -837.74,4669.63 0,1687.55 472.72,3512.23 837.74,4669.71l-14987.57 0 0 -5240 7851.04 0c478.48,0 866.31,-387.91 866.31,-866.31 0,-478.41 -387.78,-866.32 -866.31,-866.32l-14325.27 0c-478.49,0 -866.31,387.91 -866.31,866.32 0,478.4 387.78,866.31 866.31,866.31l297.55 0 0 5240 -22454.64 0c-2574.86,0 -4669.71,-2094.85 -4669.71,-4669.71l-0.05 -0.05z"/>
      <path class="fil0" d="M29613.1 32866.44l19042.37 0c478.48,0 866.31,-387.91 866.31,-866.31 0,-478.49 -387.78,-866.31 -866.31,-866.31l-19042.37 0c-478.49,0 -866.31,387.91 -866.31,866.31 0,478.4 387.77,866.31 866.31,866.31z"/>
      <path class="fil0" d="M38476.62 50543.66c-478.49,0 -866.31,387.91 -866.31,866.31 0,478.4 387.78,866.31 866.31,866.31l3892.07 -0.05c478.48,0 866.31,-387.9 866.31,-866.31 0,-478.4 -387.78,-866.31 -866.31,-866.31l-3892.07 0.05z"/>
      <path class="fil0" d="M19963.36 50543.66c-478.49,0 -866.31,387.91 -866.31,866.31 0,478.4 387.91,866.31 866.31,866.31l14719.55 -0.05c478.49,0 866.31,-387.9 866.31,-866.31 0,-478.4 -387.78,-866.31 -866.31,-866.31l-14719.55 0.05z"/>
      <path class="fil0" d="M32637.58 14560.93l2226.4 0c478.49,0 866.31,-387.9 866.31,-866.31 0,-478.4 -387.78,-866.31 -866.31,-866.31l-2226.4 0.05c-478.48,0 -866.31,387.91 -866.31,866.31 0,478.4 387.78,866.31 866.31,866.31l0 -0.05z"/>
      <path class="fil0" d="M17329.57 38301.93c447.53,227.19 977.03,184.17 1382.01,-111.98l2733.41 -1999.07 2733.4 1999.07c667.33,573.61 2118.09,89.58 2107.34,-1069.65l0 -7763.78 2547.4 0c478.49,0 866.31,-387.91 866.31,-866.31 0,-478.4 -387.91,-866.31 -866.31,-866.31l-14325 0c-478.49,0 -866.32,387.91 -866.32,866.31 0,478.4 387.91,866.31 866.32,866.31l2096.11 0 0 7763.78c0,501.63 278.03,954.49 725.33,1181.63zm7223.8 -1984.62l-2596.83 -1899.1c-152.29,-111.41 -331.88,-167.1 -511.42,-167.1 -179.54,0 -359.13,55.69 -511.42,167.1l-2596.84 1899.1 0 -6960.92 6216.42 0 0 6960.92 0.09 0z"/>
     </g>
    </g>
    <g id="_2471398122016">
     <rect class="fil1 str0" x="16667.44" y="51783.36" width="32424.43" height="5533.12" rx="312.78" ry="312.78"/>
     <rect class="fil2 str0" x="16999.43" y="52281.36" width="21136.77" height="4537.17" rx="185.83" ry="233.76"/>
     <line class="fil3 str0" x1="17165.43" y1="53387.96" x2="21923.99" y2= "53387.96" />
     <line class="fil3 str0" x1="17110.14" y1="54937.33" x2="22477.27" y2= "54937.33" />
     <line class="fil3 str0" x1="23473.24" y1="54826.63" x2="24358.63" y2= "54826.63" />
     <line class="fil3 str0" x1="17110.14" y1="56486.58" x2="19434.07" y2= "56486.58" />
     <path class="fil4 str0" d="M47802.73 22426.25c-36.86,-497.99 -147.43,-1383.38 -313.43,-2526.78 -165.99,-1143.54 -387.41,-2545.35 -553.4,-3836.32 -166,-1291.1 -276.57,-2471.49 -442.57,-3651.89 -165.99,-1180.39 -387.41,-2360.91 -608.69,-3338.45 -221.28,-977.54 -442.69,-1752.1 -645.55,-2314.65 -202.85,-562.56 -387.28,-912.98 -608.69,-1235.68 -221.28,-322.85 -479.42,-617.85 -792.99,-903.7 -313.56,-285.98 -682.53,-562.55 -1051.38,-793.11 -368.85,-230.57 -737.7,-415.12 -1078.97,-544.13 -341.14,-129.13 -654.7,-202.98 -1198.82,-258.27 -544.13,-55.29 -1318.68,-92.28 -1899.67,-73.72 -580.98,18.43 -968.39,92.15 -1374.22,267.43 -405.71,175.27 -829.85,451.84 -1290.97,811.54 -461.13,359.7 -959.11,802.27 -1429.52,1263.39 -470.28,461.13 -912.84,940.55 -1152.69,1263.39 -239.71,322.71 -276.57,488.71 -331.99,756.13 -55.28,267.42 -129,636.4 -129,1051.39 0,414.99 73.72,875.98 119.86,2037.95 46.13,1161.96 64.56,3024.89 73.71,4076.15 9.28,1051.26 9.28,1291.1 -27.58,1540.09 -36.85,249 -110.7,507.14 -193.7,820.7 -83,313.56 -175.14,682.54 -276.7,1079.1 -101.43,396.42 -212,820.69 -322.71,1143.4 -110.71,322.71 -221.28,544.12 -239.84,820.83 -18.43,276.57 55.41,608.56 451.84,765.4 396.56,156.72 1115.96,138.29 2056.51,119.86 940.68,-18.43 2102.64,-36.86 4260.58,414.99 2157.93,451.84 5311.84,1374.09 6971.79,1779.8 1659.94,405.71 1825.94,295.13 1927.37,184.43 101.42,-110.71 138.41,-221.29 101.42,-719.27z"/>
     <path class="fil4 str0" d="M45681.66 54187.09c-313.56,18.43 -793.12,18.43 -1383.38,0 -590.13,-18.43 -1291.1,-55.42 -2121.08,-92.28 -829.97,-36.86 -1788.95,-73.85 -2858.77,-184.42 -1069.69,-110.71 -2250.08,-295.13 -3541.18,-534.85 -1291.1,-239.84 -2692.78,-534.84 -4039.3,-866.83 -1346.39,-331.99 -2637.36,-700.97 -3375.18,-885.39 -737.7,-184.43 -922.12,-184.43 -1438.54,-184.43 -516.41,0 -1364.95,0 -1992.07,18.43 -626.99,18.43 -1032.83,55.42 -1254.11,36.99 -221.28,-18.56 -258.27,-92.28 -313.56,-350.55 -55.29,-258.27 -129.14,-700.84 -165.99,-922.12 -36.86,-221.41 -36.86,-221.41 -221.29,-295.13 -184.42,-73.85 -553.4,-221.28 -1069.82,-497.99 -516.41,-276.7 -1180.39,-682.41 -1918.22,-1198.82 -737.69,-516.54 -1549.11,-1143.53 -2157.8,-1678.38 -608.69,-534.97 -1014.4,-977.54 -1383.38,-1438.66 -368.85,-461.13 -700.84,-940.69 -940.68,-1364.82 -239.71,-424.27 -387.15,-793.12 -479.42,-1106.68 -92.15,-313.56 -129.14,-571.7 -166,-848.4 -36.86,-276.7 -73.85,-571.7 -0.13,-829.85 73.85,-258.27 258.4,-479.68 442.83,-700.97 184.42,-221.28 368.85,-442.69 645.42,-645.55 276.7,-202.85 645.68,-387.4 959.11,-534.97 313.56,-147.57 571.83,-258.14 866.83,-350.29 295.13,-92.28 627.12,-166.12 1161.97,-184.55 534.97,-18.43 1272.67,18.56 1955.08,18.56 682.54,0 1309.53,-36.99 1881.23,-18.56 571.83,18.43 1088.24,92.27 1752.22,184.55 663.98,92.15 1475.53,202.72 2139.51,276.57 663.98,73.72 1180.39,110.71 1493.95,129.14 313.56,18.43 424.14,18.43 534.85,129.13 110.7,110.58 221.28,331.99 424.13,737.83 202.99,405.71 498.12,995.84 848.54,1475.4 350.42,479.55 756.26,848.4 1125.1,1217.25 368.85,368.85 700.84,737.83 1180.4,1051.39 479.55,313.56 1106.54,571.7 1622.96,756.25 516.54,184.43 922.25,295.01 1475.52,313.43 553.41,18.43 1254.24,-55.28 1844.38,-221.28 590.26,-165.99 1069.81,-424.27 1678.37,-866.83 608.7,-442.7 1346.52,-1069.82 2231.79,-1715.37 885.26,-645.55 1918.22,-1309.53 2711.2,-1752.1 793.12,-442.69 1346.52,-664.11 1899.8,-811.54 553.27,-147.57 1106.67,-221.41 1604.66,-258.27 497.98,-36.86 940.55,-36.86 1475.39,110.7 534.98,147.57 1161.97,442.57 1567.67,737.7 405.84,295.13 590.4,590.26 830.11,903.82 239.84,313.56 534.84,645.55 682.41,995.97 147.56,350.42 147.56,719.27 202.85,1161.97 55.42,442.56 166,959.11 239.71,1604.66 73.85,645.55 110.84,1420.1 110.84,2121.07 0,700.84 -36.99,1327.83 -239.84,1936.52 -202.86,608.7 -571.84,1198.83 -959.11,1641.52 -387.28,442.7 -793.12,737.7 -1623.09,922.13 -829.98,184.42 -2084.09,258.27 -2711.21,295.13 -627.12,36.86 -627.12,36.86 -627.12,350.42 0,313.56 0,940.68 0,1254.24 0,313.56 0,313.56 0,405.84 0,92.14 0,276.57 0,368.84 0,92.15 0,92.15 -73.85,110.58 -73.72,18.43 -221.15,55.42 -534.71,73.85z"/>
     <path class="fil5 str0" d="M46561.82 54170.62c175.28,55.29 451.85,129.14 811.55,175.27 359.7,46.01 802.26,64.57 1254.11,92.28 451.98,27.58 913.1,64.44 1411.09,101.3 497.98,36.86 1032.83,73.85 1466.24,92.28 433.42,18.43 765.41,18.43 1014.4,-18.43 248.99,-36.86 414.99,-110.71 590.13,-212.14 175.28,-101.42 359.83,-230.56 525.83,-359.7 165.99,-129.13 313.43,-258.14 424.13,-377.99 110.71,-119.99 184.43,-230.57 221.29,-405.71 36.99,-175.28 36.99,-415.12 9.28,-664.11 -27.58,-248.99 -83,-507.14 -212.14,-783.84 -129,-276.7 -331.99,-571.7 -553.27,-765.4 -221.28,-193.71 -461.13,-285.86 -728.55,-350.42 -267.42,-64.57 -562.55,-101.56 -857.68,-119.99 -295.13,-18.43 -590.13,-18.43 -903.69,0 -313.56,18.43 -645.55,55.42 -1032.96,110.71 -387.28,55.28 -829.85,129.13 -1281.82,230.56 -451.85,101.43 -912.84,230.56 -1281.82,341.27 -368.85,110.58 -645.42,202.85 -820.7,276.57 -175.27,73.72 -248.99,129.14 -285.98,221.41 -36.86,92.15 -36.86,221.29 -36.86,414.99 0,193.57 0,451.85 0,737.7 0,285.85 0,599.41 -9.28,793.11 -9.15,193.58 -27.58,267.43 0,322.71 27.71,55.29 101.56,92.28 276.7,147.57z"/>
     <path class="fil2 str0" d="M41082.68 17939.29c35.03,140.24 49.93,457.59 77.51,642.02 27.71,184.42 68.23,235.92 88.49,658.23 20.26,422.3 20.26,1215.42 -16.6,2128.39 -36.86,912.97 -110.71,1945.8 -461.13,2665.2 -350.42,719.27 -977.41,1124.98 -1632.24,1429.39 -654.7,304.28 -1337.24,507.13 -1955.08,571.7 -617.84,64.57 -1171.24,-9.28 -1530.94,-331.99 -359.57,-322.71 -525.56,-894.54 -728.42,-1613.81 -202.85,-719.27 -442.69,-1586.23 -366.23,-2421.31 76.46,-835.2 468.97,-1638.51 694.69,-2100.42 225.73,-461.91 284.68,-582.42 440.74,-634.18 156.06,-51.76 409.5,-34.77 580.2,-89.27 170.83,-54.63 259.18,-180.5 570.65,-243.5 311.6,-63 846.58,-63 1565.85,-173.58 719.26,-110.7 1623.09,-332.12 2102.51,-461.12 479.56,-129.14 534.97,-166 570,-25.75z"/>
     <path class="fil6 str0" d="M46528.02 54170.62c154.93,55.29 399.41,129.14 717.37,175.27 317.97,46.01 709.18,64.57 1108.59,92.28 399.54,27.58 807.15,64.44 1247.35,101.3 440.21,36.86 912.99,73.85 1296.11,92.28 383.13,18.43 676.6,18.43 896.7,-18.43 220.1,-36.86 366.83,-110.71 521.65,-212.14 154.94,-101.42 318.08,-230.56 464.81,-359.7 146.74,-129.13 277.06,-258.14 374.92,-377.99 97.86,-119.99 163.03,-230.57 195.61,-405.71 32.7,-175.28 32.7,-415.12 8.2,-664.11 -24.38,-248.99 -73.36,-507.14 -187.52,-783.84 -114.03,-276.7 -293.46,-571.7 -489.07,-765.4 -195.61,-193.71 -407.62,-285.86 -644.01,-350.42 -236.39,-64.57 -497.28,-101.56 -758.16,-119.99 -260.89,-18.43 -521.66,-18.43 -798.83,0 -277.18,18.43 -570.65,55.42 -913.1,110.71 -342.34,55.28 -733.55,129.13 -1133.09,230.56 -399.41,101.43 -806.92,230.56 -1133.08,341.27 -326.05,110.58 -570.53,202.85 -725.46,276.57 -154.94,73.72 -220.11,129.14 -252.8,221.41 -32.58,92.15 -32.58,221.29 -32.58,414.99 0,193.57 0,451.85 0,737.7 0,285.85 0,599.41 -8.21,793.11 -8.09,193.58 -24.38,267.43 0,322.71 24.5,55.29 89.78,92.28 244.6,147.57z"/>
     <path class="fil7 str1" d="M40856.83 19760c-69.28,338.79 -161.42,762.93 -253.7,1159.48 -92.15,396.56 -184.43,765.54 -313.56,1162.1 -129.01,396.43 -295,820.69 -470.28,1180.39 -175.14,359.57 -359.7,654.7 -590.26,995.97 -230.56,341.14 -507.13,728.55 -737.7,968.26 -230.56,239.72 -414.98,331.99 -627.12,405.71 -212,73.72 -451.84,129.14 -737.7,101.43 -285.85,-27.71 -617.84,-138.29 -866.83,-304.28 -248.99,-166 -414.99,-387.41 -553.4,-682.41 -138.29,-295.13 -248.86,-663.98 -295,-1180.4 -46.14,-516.41 -27.71,-1180.39 -9.28,-1641.52 18.43,-461.12 36.86,-719.26 73.71,-1088.11 36.86,-368.98 92.28,-848.54 110.71,-1180.53 18.43,-331.99 0,-516.41 0,-608.56 0,-92.28 18.43,-92.28 -131.88,-85.74 -150.18,6.4 -468.97,19.21 -734.43,36.21 -265.33,16.86 -477.07,37.77 -583.07,48.23 -105.87,10.45 -105.87,10.45 -163.25,214.87 -57.38,204.43 -172.27,613.27 -248.08,1269.54 -75.81,656.27 -112.8,1560.09 -131.23,2500.77 -18.43,940.55 -18.43,1918.09 92.15,2628.21 110.71,710.12 332.12,1152.68 710.12,1576.95 378.13,424.14 913.1,829.98 1706.09,1051.26 793.11,221.28 1844.5,258.27 2609.91,-36.86 765.4,-295.13 1244.83,-922.12 1696.67,-1586.1 451.98,-663.98 876.12,-1364.95 1337.24,-2130.36 461.13,-765.4 959.11,-1595.38 1244.96,-2240.93 285.86,-645.55 359.7,-1106.54 255.4,-1580.87 -104.17,-474.33 -386.36,-961.86 -616.92,-1247.71 -230.57,-285.98 -409.37,-370.15 -600.33,-458.38 -190.83,-88.22 -393.81,-180.5 -531.18,-231.08 -137.38,-50.72 -209.26,-59.74 -272.13,-63 -62.74,-3.27 -116.46,-0.79 -149.66,33.98 -33.07,34.64 -45.74,101.3 -75.15,261.41 -29.41,159.98 -75.55,413.29 -144.82,752.07z"/>
     <path class="fil5 str0" d="M23257.7 49704.31c36.86,212.13 55.29,488.71 55.29,654.7 0,166 -18.43,221.41 -64.57,304.41 -46,83 -119.85,193.58 -285.85,304.28 -165.99,110.71 -424.13,221.28 -839.12,322.84 -414.99,101.43 -986.82,193.58 -1521.66,258.14 -534.85,64.57 -1032.83,101.43 -1475.53,92.28 -442.57,-9.28 -829.97,-64.7 -1152.81,-147.69 -322.71,-83 -580.86,-193.58 -774.56,-322.71 -193.7,-129.14 -322.71,-276.58 -396.56,-414.86 -73.72,-138.42 -92.28,-267.55 -64.57,-387.41 27.71,-119.99 101.43,-230.56 193.71,-359.7 92.28,-129.14 202.85,-276.57 322.71,-405.71 119.98,-129.13 248.99,-239.71 414.99,-350.42 165.99,-110.7 368.97,-221.28 590.26,-304.28 221.28,-82.99 461.12,-138.41 746.97,-184.42 285.86,-46.14 617.85,-83.13 1041.98,-110.71 424.27,-27.71 940.68,-46.14 1318.81,-64.57 378.13,-18.42 617.84,-36.98 885.26,64.44 267.56,101.43 562.56,322.84 737.7,507.27 175.28,184.42 230.7,331.99 267.55,544.12z"/>
     <path class="fil6 str0" d="M23734.12 50243.21c36.86,212.13 55.29,488.7 55.29,654.7 0,165.99 -18.43,221.41 -64.57,304.41 -46.01,82.99 -119.85,193.57 -285.85,304.28 -165.99,110.7 -424.13,221.28 -839.12,322.84 -414.99,101.42 -986.82,193.57 -1521.67,258.14 -534.84,64.57 -1032.82,101.43 -1475.52,92.28 -442.57,-9.28 -829.98,-64.7 -1152.82,-147.7 -322.71,-83 -580.85,-193.57 -774.55,-322.71 -193.71,-129.14 -322.71,-276.57 -396.56,-414.86 -73.72,-138.41 -92.28,-267.55 -64.57,-387.4 27.71,-119.99 101.43,-230.57 193.71,-359.7 92.27,-129.14 202.85,-276.57 322.71,-405.71 119.98,-129.14 248.99,-239.71 414.98,-350.42 166,-110.71 368.98,-221.28 590.27,-304.28 221.28,-83 461.12,-138.42 746.97,-184.42 285.85,-46.14 617.84,-83.13 1041.98,-110.71 424.27,-27.71 940.68,-46.14 1318.81,-64.57 378.13,-18.43 617.84,-36.99 885.26,64.44 267.56,101.42 562.56,322.84 737.7,507.26 175.28,184.43 230.69,331.99 267.55,544.13z"/>
     <path class="fil7 str0" d="M36559.26 44518.47c387.27,0 571.83,0 793.11,-55.29 221.29,-55.41 479.56,-165.99 774.56,-368.84 295.13,-202.99 627.12,-497.99 1014.4,-793.12 387.41,-295.13 829.97,-590.26 1272.67,-922.25 442.69,-331.99 885.26,-700.84 1327.96,-1032.83 442.69,-331.99 885.26,-627.12 1346.39,-903.69 461.12,-276.7 940.68,-534.98 1475.52,-756.26 534.98,-221.28 1125.11,-405.84 1586.23,-516.41 461.13,-110.71 793.12,-147.57 1143.54,-147.57 350.42,0 719.27,36.86 922.12,36.86 202.85,0 239.84,-36.86 331.99,-147.44 92.28,-110.7 239.84,-295.26 368.98,-461.25 129.13,-166 239.71,-313.43 295,-719.14 55.42,-405.84 55.42,-1069.82 55.42,-1807.51 0,-737.83 0,-1549.38 -36.99,-2489.93 -36.86,-940.68 -110.58,-2010.5 -221.28,-3153.9 -110.71,-1143.54 -258.15,-2360.92 -405.71,-3375.32 -147.57,-1014.4 -295.13,-1825.94 -442.7,-2397.64 -147.56,-571.84 -295.13,-903.83 -479.55,-1272.68 -184.43,-368.84 -405.84,-774.68 -590.27,-1088.11 -184.42,-313.56 -331.86,-534.98 -553.27,-774.69 -221.28,-239.84 -516.41,-497.98 -829.97,-700.84 -313.56,-202.98 -645.55,-350.55 -1051.39,-534.97 -405.71,-184.43 -885.13,-405.84 -1290.97,-571.83 -405.71,-166 -737.7,-276.58 -903.69,-331.86 -166,-55.42 -166,-55.42 -184.43,73.71 -18.43,129.14 -55.42,387.28 -129.27,700.84 -73.71,313.56 -184.29,682.54 -276.57,1088.38 -92.14,405.71 -165.99,848.27 -276.7,1217.25 -110.57,368.85 -258.14,663.85 -405.71,995.84 -147.56,331.99 -295.13,700.97 -442.69,1014.53 -147.57,313.43 -295,571.7 -461,811.42 -165.99,239.71 -350.55,461.12 -571.83,682.4 -221.28,221.29 -479.56,442.7 -737.83,627.13 -258.14,184.42 -516.28,331.99 -792.98,479.55 -276.7,147.57 -571.71,295.13 -848.41,387.41 -276.7,92.15 -534.84,129 -793.11,92.15 -258.28,-36.99 -516.42,-147.57 -719.4,-276.71 -202.86,-129.13 -350.29,-276.57 -497.86,-497.85 -147.56,-221.41 -295.13,-516.54 -387.4,-756.26 -92.15,-239.84 -129.14,-424.26 -202.99,-627.12 -73.72,-202.85 -184.29,-424.27 -258.14,-700.84 -73.72,-276.7 -110.58,-608.69 -129.01,-1069.81 -18.43,-461.13 -18.43,-1051.26 0,-1659.95 18.43,-608.69 55.29,-1235.68 110.58,-1715.24 55.42,-479.56 129.14,-811.55 166,-977.54 36.98,-166 36.98,-166 -92.15,-147.57 -129.14,18.43 -387.28,55.42 -774.69,129.27 -387.28,73.72 -903.69,184.29 -1309.53,276.57 -405.71,92.15 -700.84,166 -977.54,258.27 -276.57,92.15 -534.84,202.73 -793.11,331.86 -258.15,129.14 -516.29,276.71 -756.13,461.13 -239.71,184.42 -461.13,405.84 -645.55,590.26 -184.43,184.43 -331.99,331.86 -461.13,534.85 -129.13,202.85 -239.71,460.99 -350.42,737.69 -110.7,276.7 -221.28,571.7 -331.99,848.41 -110.7,276.7 -221.28,534.84 -331.99,885.39 -110.7,350.42 -221.28,792.98 -331.99,1235.68 -110.7,442.7 -221.28,885.26 -350.41,1364.82 -129.14,479.56 -276.58,995.97 -571.71,1862.8 -295.13,866.84 -737.69,2084.22 -1309.53,3467.47 -571.7,1383.24 -1272.67,2932.62 -1715.36,3817.88 -442.57,885.26 -627,1106.68 -645.42,1327.96 -18.43,221.28 129,442.7 313.43,627.12 184.42,184.42 405.83,331.99 627.12,461.13 221.28,129.13 442.69,239.71 627.12,350.42 184.42,110.7 331.99,221.28 682.41,331.99 350.42,110.7 903.82,221.28 1420.23,258.27 516.42,36.86 995.97,-0.13 1309.53,18.43 313.56,18.43 461,92.14 608.56,221.28 147.57,129.14 295.14,313.56 442.7,553.4 147.57,239.72 295.13,534.72 553.27,903.7 258.28,368.84 627.12,811.41 977.54,1198.82 350.42,387.28 682.41,719.27 1014.4,995.97 331.99,276.57 663.98,497.98 977.54,700.84 313.56,202.85 608.69,387.41 885.27,516.54 276.7,129.01 534.97,202.86 811.54,239.71 276.7,36.86 571.83,36.86 1014.4,36.86 442.7,0 1032.96,0 1420.24,0z"/>
     <path class="fil3 str0" d="M42504.23 40809.73c4.18,-202.33 8.23,-404.79 -17.39,-681.1 -25.48,-276.44 -80.9,-626.86 -182.33,-931.14 -101.43,-304.42 -248.99,-562.56 -414.99,-839.26 -165.99,-276.7 -350.42,-571.7 -488.83,-774.55 -138.29,-202.99 -230.43,-313.57 -248.99,-396.56 -18.43,-83 36.98,-138.42 193.7,-221.42 156.85,-82.99 414.99,-193.57 682.41,-322.71 267.55,-129.13 544.12,-276.7 857.68,-451.84 313.56,-175.28 663.98,-378.26 866.84,-488.84 202.85,-110.7 258.27,-129.13 295.13,-221.28 36.86,-92.28 55.42,-258.27 64.57,-728.55 9.28,-470.4 9.28,-1244.96 27.7,-2425.35 18.43,-1180.53 55.29,-2766.63 101.3,-4066.88 46.14,-1300.38 101.56,-2314.78 184.56,-3153.9 82.99,-839.26 193.57,-1503.24 267.29,-1899.8 73.84,-396.55 110.83,-525.56 184.55,-737.69 73.85,-212.14 184.43,-507.27 295.13,-719.4 110.71,-212.13 221.29,-341.14 355.13,-475.5 133.84,-134.37 290.82,-274.09 369.24,-343.89 78.55,-69.79 78.55,-69.79 78.55,-69.79"/>
     <path class="fil3 str0" d="M42239.94 33562.81c-276.7,0 -553.27,0 -876.11,-55.29 -322.71,-55.42 -691.56,-166 -1041.98,-295.13 -350.42,-129.14 -682.41,-276.7 -1032.83,-461.13 -350.42,-184.42 -719.4,-405.84 -1051.39,-682.41 -331.98,-276.7 -626.99,-608.69 -922.12,-940.68"/>
     <path class="fil3 str0" d="M30675.72 32677.55c0,-166 0,-331.99 9.15,-497.99 9.28,-165.99 27.71,-331.99 -18.43,-525.56 -46.14,-193.71 -156.72,-415.12 -285.85,-682.54 -129.14,-267.42 -276.71,-580.99 -405.84,-866.84 -129.14,-285.98 -239.71,-544.12 -304.28,-746.97 -64.57,-202.99 -83,-350.42 -64.57,-599.41 18.43,-249 73.85,-599.55 156.84,-922.26 83,-322.84 193.58,-617.84 304.29,-885.26 110.7,-267.42 221.28,-507.26 313.42,-774.69 92.28,-267.42 166.13,-562.55 230.57,-940.68 64.57,-378.13 119.98,-839.12 175.27,-1263.26 55.29,-424.27 110.71,-811.67 202.86,-1328.09 92.27,-516.41 221.41,-1161.96 341.27,-1650.67 119.98,-488.83 230.56,-820.82 305.85,-1036.88 75.28,-216.05 115.28,-316.17 155.14,-416.29"/>
     <path class="fil3 str2" d="M22015.62 40501.79c405.71,110.7 811.54,221.28 1198.82,350.42 387.28,129.13 756.26,276.7 1235.68,516.54 479.56,239.71 1069.82,571.7 1659.95,922.12 590.26,350.42 1180.4,719.27 1770.66,1125.11 590.26,405.71 1180.39,848.27 1807.51,1309.4 627.12,461.12 1291.1,940.68 1955.08,1401.81 663.98,461.12 1327.96,903.69 1918.09,1309.53 590.27,405.7 1106.68,774.68 1862.81,1180.52 756.25,405.71 1752.22,848.27 2563.77,1180.26 811.54,331.99 1438.53,553.41 2028.67,737.83 590.26,184.43 1143.66,331.86 1623.22,461 479.55,129.13 885.26,239.71 1309.53,313.56 424.26,73.71 866.83,110.7 1309.53,147.56"/>
     <path class="fil3 str2" d="M47910.83 46809.59c-202.86,258.28 -405.84,516.42 -719.4,793.12 -313.56,276.7 -737.7,571.7 -1217.26,876.11 -479.55,304.28 -1014.39,617.84 -1567.8,903.7 -553.27,285.85 -1124.97,544.12 -1779.54,755.86 -654.44,211.61 -1391.48,376.95 -2128.66,542.16"/>
     <path class="fil3 str2" d="M49681.35 44872.94c-239.71,350.42 -479.55,700.97 -719.27,1051.39"/>
     <path class="fil3 str2" d="M36678.46 45315.64c-202.85,129.14 -405.84,258.14 -700.97,414.99 -295,156.71 -682.41,341.27 -1042.11,488.83 -359.57,147.57 -691.56,258.14 -1067.99,351.47 -376.43,93.19 -797.43,168.87 -1218.29,244.68"/>
     <path class="fil3 str2" d="M19248.99 40391.08c313.56,-18.43 627.12,-36.86 940.68,-55.29"/>
     <g>
      <path class="fil2 str0" d="M38265.61 34125.62c-18.43,-202.85 -36.86,-534.84 -110.71,-737.7 -73.72,-202.98 -202.72,-276.7 -461,-331.98 -258.14,-55.42 -645.55,-92.28 -986.82,-175.28 -341.14,-83 -636.27,-212.13 -986.69,-341.27 -350.42,-129.14 -756.25,-258.14 -1171.24,-331.86 -414.99,-73.85 -839.12,-92.28 -1291.1,-64.57 -451.85,27.58 -931.27,101.43 -1346.26,221.29 -414.99,119.85 -765.54,285.85 -986.82,405.7 -221.28,119.86 -313.56,193.71 -396.56,175.28 -82.99,-18.56 -156.71,-129.14 -202.85,-276.7 -46.14,-147.57 -64.57,-331.99 -202.99,-580.99 -138.28,-248.99 -396.42,-562.55 -802.26,-848.4 -405.71,-285.85 -959.11,-544.12 -1632.37,-802.27 -673.13,-258.27 -1466.12,-516.41 -2028.67,-728.54 -562.55,-212.14 -894.54,-378.13 -1060.54,-461.13 -165.99,-83 -165.99,-83 -341.27,119.86 -175.14,202.85 -525.56,608.69 -700.83,811.54 -175.15,202.86 -175.15,202.86 -18.43,433.42 156.84,230.56 470.27,691.69 1023.54,1466.37 553.41,774.56 1346.52,1862.81 2056.64,2526.79 710.12,663.98 1337.11,903.69 2231.65,995.97 894.55,92.27 2056.51,36.86 3504.33,-156.72 1447.81,-193.7 3181.61,-525.69 4177.58,-673.26 995.97,-147.56 1254.11,-110.7 1429.39,-129.13 175.27,-18.43 267.42,-92.28 304.28,-166 36.99,-73.72 18.43,-147.56 0,-350.42z"/>
      <path class="fil4 str0" d="M38487.02 37759.08c36.86,-829.97 73.72,-2305.5 92.15,-3043.2 18.43,-737.82 18.43,-737.82 -1438.67,-719.39 -1456.96,18.43 -4371.16,55.41 -5828.25,73.84 -1456.97,18.43 -1456.97,18.43 -1530.81,147.57 -73.72,129 -221.29,387.28 -331.99,534.84 -110.58,147.44 -184.43,184.43 -258.28,202.86 -73.71,18.43 -147.43,18.43 -1124.97,-793.12 -977.54,-811.54 -2858.9,-2434.5 -3818.02,-3264.48 -958.98,-829.97 -995.83,-866.96 -1014.26,-885.39 -18.43,-18.43 -18.43,-18.43 -36.86,55.42 -18.43,73.71 -55.42,221.28 -36.99,1143.53 18.43,922.12 92.28,2618.93 129.13,3467.33 36.86,848.41 36.86,848.41 958.98,1530.82 922.26,682.41 2766.76,2047.36 3688.88,2729.76 922.25,682.41 922.25,682.41 1825.95,645.56 903.82,-36.86 2711.2,-110.71 4186.73,-147.57 1475.52,-36.86 2619.06,-36.86 3301.47,-110.58 682.41,-73.84 903.82,-221.41 1032.83,-387.41 129.13,-165.99 166.12,-350.41 202.98,-1180.39z"/>
     </g>
     <path class="fil2 str0" d="M42547.49 40778.49c18.43,-129.14 36.86,-331.99 36.86,-553.27 0,-221.42 -18.43,-461.13 -73.85,-710.12 -55.29,-248.99 -147.43,-507.27 -267.42,-756.26 -119.86,-248.99 -267.42,-488.7 -433.42,-737.7 -165.99,-248.99 -350.42,-507.26 -479.55,-654.7 -129.01,-147.56 -202.86,-184.55 -276.7,-184.55 -73.72,0 -147.44,36.99 -276.58,110.84 -129.13,73.71 -313.56,184.29 -571.83,295 -258.14,110.7 -590.13,221.28 -903.69,331.99 -313.56,110.7 -608.56,221.28 -903.69,331.99 -295.13,110.7 -590.26,221.28 -857.69,285.85 -267.42,64.57 -507.26,83 -756.25,129.13 -249,46.01 -507.14,119.86 -811.55,147.57 -304.28,27.58 -654.7,9.15 -922.12,-46.14 -267.42,-55.42 -451.85,-147.56 -608.69,-304.28 -156.72,-156.85 -285.85,-378.26 -470.28,-636.4 -184.42,-258.27 -424.26,-553.27 -636.4,-765.41 -212,-212.13 -396.43,-341.14 -645.42,-470.27 -248.99,-129.14 -562.55,-258.27 -857.68,-387.41 -295.13,-129.14 -571.7,-258.14 -774.69,-359.57 -202.85,-101.43 -331.86,-175.27 -460.99,-212.13 -129.14,-36.86 -258.28,-36.86 -341.27,9.28 -83,46 -119.86,138.28 -119.86,230.56 0,92.15 36.86,184.29 110.58,267.29 73.84,83 184.42,156.85 304.28,221.41 119.98,64.44 249.12,119.86 378.26,184.43 129.13,64.57 258.14,138.28 359.56,202.85 101.43,64.57 175.28,119.99 249,202.99 73.85,82.99 147.56,193.57 184.42,276.57 36.99,83 36.99,138.41 9.28,175.27 -27.58,36.86 -83,55.29 -175.27,55.29 -92.15,0 -221.29,-18.43 -405.71,-64.57 -184.43,-46.14 -424.27,-119.85 -654.83,-175.14 -230.43,-55.42 -451.85,-92.28 -663.98,-147.57 -212,-55.42 -414.99,-129.13 -636.27,-248.99 -221.28,-119.99 -461.13,-285.98 -654.83,-433.55 -193.58,-147.56 -341.14,-276.57 -451.85,-359.57 -110.57,-82.99 -184.42,-119.98 -267.42,-64.56 -83,55.28 -175.14,202.85 -212.13,304.28 -36.86,101.42 -18.3,156.84 9.28,212.13 27.71,55.29 64.57,110.71 129.13,202.99 64.57,92.14 156.72,221.15 267.42,341.13 110.71,119.86 239.72,230.44 359.57,313.43 119.99,83 230.57,138.42 350.42,212.27 119.99,73.72 249.13,165.86 396.69,248.86 147.57,83 313.56,156.85 470.28,202.98 156.84,46.01 304.28,64.57 442.56,119.86 138.42,55.29 267.56,147.57 424.27,212.13 156.85,64.44 341.27,101.43 433.42,138.29 92.27,36.86 92.27,73.85 27.71,64.7 -64.57,-9.28 -193.58,-64.7 -442.57,-166.13 -248.99,-101.42 -617.97,-248.99 -903.82,-350.42 -285.85,-101.42 -488.84,-156.84 -599.55,-165.99 -110.57,-9.28 -129,27.71 -138.28,73.85 -9.15,46 -9.15,101.42 27.71,165.99 36.86,64.44 110.71,138.29 221.28,202.86 110.71,64.43 258.27,119.85 397.08,194.75 138.81,74.76 268.86,169.13 425.58,242.98 156.84,73.71 340.35,126.91 505.82,181.15 165.61,54.24 313.04,109.66 442.18,174.23 129.13,64.44 239.71,138.29 276.57,175.15 36.99,36.85 0.13,36.85 -156.72,-27.71 -156.71,-64.57 -433.28,-193.58 -682.93,-301.02 -249.64,-107.44 -472.36,-193.18 -592.22,-227.68 -119.86,-34.64 -137.11,-18.17 -145.74,6.27 -8.49,24.44 -8.49,56.73 -9.15,85.35 -0.65,28.62 -1.83,53.59 6.67,84.57 8.63,30.84 27.06,67.7 110.71,129 83.65,61.3 232.39,147.04 371.33,217.62 139.07,70.45 268.21,125.87 434.2,190.44 165.99,64.44 368.85,138.29 461,166 92.27,27.57 73.84,9.15 -64.57,-36.99 -138.29,-46.14 -396.43,-119.86 -600.07,-171.88 -203.51,-52.15 -352.25,-82.61 -472.76,-116.2 -120.51,-33.59 -212.78,-70.58 -285.98,-73.71 -73.06,-3.27 -127.04,27.05 -172.53,60.77 -45.48,33.6 -82.47,70.45 -100.9,125.87 -18.43,55.29 -18.43,129.01 73.71,202.86 92.28,73.71 276.84,147.56 451.98,230.56 175.28,83 341.27,175.14 534.85,248.99 193.7,73.72 415.11,129.14 654.83,202.86 239.71,73.71 497.98,165.99 774.55,230.56 276.7,64.44 571.83,101.43 894.54,147.56 322.84,46.01 673.26,101.43 1152.82,156.72 479.55,55.29 1088.12,110.71 1558.39,147.56 470.41,36.86 802.4,55.29 1364.95,73.72 562.55,18.43 1355.54,36.99 2111.66,64.7 756.26,27.58 1475.66,64.44 2056.64,73.72 580.98,9.15 1023.55,-9.28 1272.54,-36.86 248.99,-27.71 304.41,-64.7 341.27,-110.71 36.86,-46.14 55.42,-101.56 73.85,-230.56z"/>
     <path class="fil2 str0" d="M24208.97 37926.64c110.71,0 276.7,18.56 461.13,27.84 184.42,9.15 387.41,9.15 571.83,-27.71 184.43,-36.98 350.42,-110.7 451.85,-202.98 101.42,-92.28 138.41,-202.85 119.85,-295 -18.43,-92.28 -92.14,-166.13 -202.85,-230.56 -110.71,-64.57 -258.14,-119.99 -396.56,-129.14 -138.28,-9.28 -267.42,27.71 -396.56,18.56 -129.13,-9.28 -258.14,-64.7 -433.41,-166.12 -175.15,-101.43 -396.56,-249 -571.84,-396.56 -175.14,-147.57 -304.14,-295.13 -377.99,-424.27 -73.72,-129.14 -92.28,-239.71 -110.71,-350.42 -18.43,-110.71 -36.86,-221.28 -83,-322.71 -46.01,-101.43 -119.85,-193.7 -138.28,-239.71 -18.43,-46.14 18.43,-46.14 42.08,-14.51 23.66,31.63 34.25,95.02 49.54,178.02 15.42,83 35.55,185.73 54.9,292.52 19.34,106.65 37.9,217.23 83.91,318.66 46.14,101.42 119.99,193.7 202.98,276.7 83,82.99 175.15,156.71 322.71,267.42 147.57,110.71 350.42,258.14 547.13,341.14 196.71,83 387.41,101.42 464.27,119.85 76.85,18.43 39.99,36.86 58.42,0 18.43,-36.99 92.28,-129.13 110.71,-230.56 18.43,-101.56 -18.56,-212.13 -73.85,-304.28 -55.29,-92.28 -129.14,-166.12 -310.29,-311.08 -181.03,-145.08 -469.36,-361.26 -684.5,-517.59 -215.01,-156.32 -356.83,-252.65 -455.51,-319.7 -98.55,-67.05 -154.1,-104.83 33.33,42.35 187.43,147.04 617.71,478.9 906.7,663.32 288.99,184.43 436.55,221.29 537.98,230.57 101.43,9.15 156.84,-9.28 193.7,-46.14 36.86,-36.86 55.29,-92.28 73.72,-166 18.43,-73.84 36.86,-165.99 -9.28,-276.7 -46.14,-110.71 -156.71,-239.71 -276.7,-341.14 -119.86,-101.42 -248.86,-175.27 -359.57,-248.99 -110.71,-73.85 -202.85,-147.57 -313.56,-221.28 -110.71,-73.85 -239.71,-147.7 -387.28,-239.85 -147.56,-92.27 -313.56,-202.85 -461.12,-322.71 -147.57,-119.98 -276.57,-248.99 -368.85,-341.14 -92.15,-92.27 -147.57,-147.69 -101.43,-110.7 46.14,36.86 193.57,165.86 295,258.14 101.43,92.15 156.85,147.57 239.84,230.56 83,83 193.58,193.58 331.86,276.57 138.42,83 304.41,138.42 433.55,212.27 129.14,73.72 221.28,165.86 313.56,202.85 92.28,36.86 184.43,18.3 267.42,-27.71 83,-46.14 156.85,-119.98 166,-221.41 9.28,-101.43 -46.14,-230.43 -175.28,-387.15 -129,-156.84 -331.99,-341.4 -562.55,-562.68 -230.43,-221.28 -488.7,-479.56 -691.56,-691.56 -202.85,-212.13 -350.42,-378.13 -442.69,-488.71 -92.15,-110.7 -129.14,-166.12 -166,-221.41 -36.86,-55.29 -73.72,-110.71 -9.15,-27.71 64.57,83 230.56,304.41 378.13,451.98 147.57,147.43 276.57,221.28 396.43,276.57 119.98,55.29 230.56,92.28 331.99,119.99 101.55,27.58 193.7,46 267.42,36.86 73.85,-9.28 129.27,-46.27 138.41,-156.85 9.28,-110.71 -27.7,-295.13 -73.84,-470.28 -46.01,-175.27 -101.43,-341.27 -212.14,-534.84 -110.57,-193.7 -276.57,-415.12 -405.7,-581.11 -129.14,-166 -221.29,-276.57 -331.99,-368.72 -110.71,-92.28 -239.72,-166.13 -350.42,-230.56 -110.71,-64.57 -202.86,-119.99 -304.41,-147.57 -101.43,-27.71 -212.01,-27.71 -295.01,9.15 -82.99,36.86 -138.41,110.71 -184.55,193.71 -46.01,82.99 -82.87,175.14 -73.72,267.42 9.28,92.14 64.7,184.42 92.28,285.85 27.71,101.42 27.71,212 55.29,322.71 27.71,110.7 83.13,221.28 129.13,304.28 46.14,83 83,138.41 92.15,193.7 9.28,55.29 -9.15,110.71 -27.58,175.28 -18.43,64.57 -36.86,138.28 -55.29,212.13 -18.43,73.72 -36.99,147.57 -46.27,239.84 -9.14,92.15 -9.14,202.73 18.43,322.71 27.71,119.86 83.13,248.87 129.14,350.42 46.14,101.43 83.13,175.15 83.13,239.72 0,64.56 -36.99,119.98 -64.7,156.84 -27.58,36.86 -46.01,55.29 -64.44,138.29 -18.43,82.99 -36.86,230.56 -9.28,368.98 27.71,138.28 101.56,267.29 156.85,341.14 55.29,73.71 92.28,92.14 73.72,165.99 -18.43,73.72 -92.15,202.85 -129.14,322.84 -36.86,119.86 -36.86,230.43 -36.86,405.71 0,175.14 0,414.99 36.86,654.7 36.99,239.71 110.71,479.55 248.99,673.26 138.42,193.57 341.27,341.14 507.27,451.84 165.99,110.58 295.13,184.43 562.55,230.57 267.42,46 673.26,64.56 691.69,73.84 18.43,9.15 -350.55,9.15 -507.4,0 -156.71,-9.28 -101.29,-27.84 9.28,-27.84z"/>
     <path class="fil2 str1" d="M40997.07 18220.96c202.86,-166 553.27,-442.57 829.85,-682.28 276.7,-239.85 479.68,-442.7 691.68,-654.7 212.14,-212.14 433.55,-433.55 599.55,-617.97 165.99,-184.43 276.57,-331.99 396.42,-424.14 119.99,-92.28 249,-129.27 396.56,-212.26 147.57,-83 313.56,-212.01 442.7,-322.71 129.14,-110.71 221.28,-202.86 285.85,-313.57 64.57,-110.7 101.43,-239.71 132.14,-350.28 30.72,-110.71 55.42,-202.99 46.66,-292 -8.75,-89.14 -50.71,-175.27 -127.56,-248.99 -76.86,-73.85 -188.61,-135.28 -298.27,-176.84 -109.53,-41.57 -217.23,-63 -318.66,-53.72 -101.43,9.15 -196.71,49.01 -327.41,87.44 -130.58,38.43 -296.57,75.41 -434.99,66.27 -138.29,-9.28 -248.86,-64.7 -378,-138.42 -129.13,-73.85 -276.57,-166 -460.99,-313.56 -184.43,-147.57 -405.84,-350.55 -654.83,-608.69 -249,-258.28 -525.57,-571.71 -728.55,-829.85 -202.86,-258.27 -331.99,-461.25 -507.27,-728.68 -175.14,-267.42 -396.55,-599.41 -710.11,-1106.54 -313.43,-507.27 -719.27,-1189.67 -995.97,-1659.95 -276.58,-470.41 -424.14,-728.55 -553.28,-949.83 -129.13,-221.41 -239.71,-405.84 -378.13,-507.27 -138.28,-101.42 -304.28,-119.98 -507.13,-110.7 -202.85,9.15 -442.7,46.14 -673.26,101.42 -230.43,55.29 -451.85,129.14 -654.7,239.85 -202.85,110.57 -387.28,258.14 -525.69,414.98 -138.29,156.72 -230.44,322.71 -331.99,544.13 -101.43,221.28 -212.01,497.85 -322.71,811.41 -110.71,313.56 -221.29,663.98 -304.28,1171.25 -83,507.13 -138.42,1171.11 -166.13,1798.23 -27.58,627.12 -27.58,1217.25 36.99,1752.23 64.57,534.84 193.57,1014.4 322.71,1466.24 129.14,451.85 258.27,876.12 414.99,1254.25 156.84,377.99 341.27,709.98 534.84,1014.39 193.71,304.28 396.69,580.86 544.12,783.84 147.57,202.85 239.85,331.99 396.56,479.56 156.72,147.56 378.13,313.56 544.13,424.26 165.99,110.58 276.57,166 405.7,202.86 129.14,36.86 276.71,55.28 451.85,46.14 175.27,-9.28 378.26,-46.27 571.83,-101.56 193.71,-55.29 378.13,-129.14 627.12,-230.57 249,-101.42 562.56,-230.43 802.27,-359.56 239.84,-129.14 405.84,-258.28 516.41,-350.42 110.71,-92.28 166.13,-147.7 368.98,-313.69z"/>
     <path class="fil3 str0" d="M41790.06 13960.51c-92.15,55.28 -184.43,110.7 -322.71,138.41 -138.29,27.58 -322.84,27.58 -525.7,18.43 -202.85,-9.28 -424.26,-27.71 -590.26,-73.85 -165.99,-46.13 -276.57,-119.85 -378,-212.13 -101.42,-92.28 -193.7,-202.85 -285.85,-313.56"/>
     <path class="fil3 str0" d="M36976.2 12798.54c-55.28,55.29 -110.7,110.71 -248.99,156.85 -138.28,46.01 -359.7,83 -544.12,83 -184.43,0 -331.86,-36.99 -479.43,-138.42 -147.56,-101.43 -295.13,-267.42 -405.83,-396.56 -110.58,-129.14 -184.43,-221.28 -258.15,-313.56"/>
     <path class="fil3 str0" d="M39687.54 15675.74c-55.29,110.71 -110.71,221.29 -248.99,313.56 -138.29,92.28 -359.7,166 -599.54,221.42 -239.72,55.29 -497.86,92.14 -728.42,73.72 -230.56,-18.43 -433.55,-92.28 -636.4,-166"/>
     <path class="fil3 str0" d="M37972.17 11415.29c-55.28,-129.13 -110.7,-258.27 -193.7,-405.83 -83,-147.57 -193.57,-313.56 -331.99,-451.85 -138.29,-138.42 -304.28,-248.99 -488.71,-322.71 -184.42,-73.85 -387.27,-110.71 -580.98,-110.71 -193.57,0 -378.13,36.86 -534.97,119.86 -156.72,83 -285.72,212.13 -414.86,341.27"/>
     <path class="fil3 str0" d="M38359.58 15122.47c-110.7,36.86 -221.28,73.85 -322.84,119.99 -101.42,46.01 -193.57,101.42 -290.16,87.96 -96.46,-13.46 -197.11,-95.8 -261.67,-187.95 -64.57,-92.28 -92.93,-194.49 -61.04,-420.74 31.89,-226.38 124.17,-576.8 216.31,-927.22"/>
     <path class="fil3 str2" d="M42786.03 11581.29c-110.71,-92.28 -221.29,-184.42 -368.85,-285.85 -147.57,-101.56 -331.99,-212.14 -553.41,-285.85 -221.28,-73.85 -479.42,-110.84 -728.41,-110.84 -249,0 -488.84,36.99 -728.55,73.85"/>
     <path class="fil3 str2" d="M37695.6 6656.73c-184.42,-110.71 -368.98,-221.28 -562.68,-322.71 -193.57,-101.56 -396.43,-193.7 -543.99,-230.56 -147.57,-36.99 -239.72,-18.43 -359.7,9.28 -119.86,27.58 -267.42,64.43 -396.56,212 -129.14,147.57 -239.71,405.71 -350.42,663.98"/>
     <path class="fil3 str2" d="M45884.64 12411.26c-258.27,-147.56 -516.41,-295.13 -774.68,-442.69"/>
     <path class="fil3 str2" d="M43892.7 10806.6c-276.7,-479.55 -553.27,-959.11 -765.4,-1337.24 -212.14,-378.12 -359.7,-654.7 -498.12,-931.4 -138.28,-276.7 -267.29,-553.27 -414.86,-839.12 -147.56,-285.98 -313.56,-580.98 -507.26,-912.97 -193.57,-331.99 -414.99,-700.97 -627.12,-1023.68 -212,-322.84 -414.99,-599.41 -617.84,-839.13 -202.86,-239.84 -405.71,-442.69 -617.84,-599.41 -212.01,-156.84 -433.42,-267.42 -645.55,-322.71 -212.01,-55.42 -414.99,-55.42 -636.27,-46.14 -221.29,9.15 -461.13,27.58 -654.83,92.15 -193.58,64.57 -341.14,175.14 -442.57,276.7 -101.43,101.43 -156.85,193.58 -212.13,285.85"/>
     <path class="fil3 str0" d="M36550.24 18736.72c-24.05,916.24 -47.97,1832.61 -72.02,2748.85"/>
     <ellipse class="fil3 str0" cx="35826.07" cy="12743.25" rx="2059.06" ry="1991.94"/>
     <ellipse class="fil3 str0" cx="40489.74" cy="13683.87" rx="2074.87" ry="2047.29"/>
    </g>
   </g>
  </g>
  <polygon class="fil3" points="-5.47,3.2 53594.53,3.2 53594.53,57553.2 -5.47,57553.2 "/>
 </g>
</svg>
