<?xml version="1.0" encoding="UTF-8"?>
<!DOCTYPE svg PUBLIC "-//W3C//DTD SVG 1.1//EN" "http://www.w3.org/Graphics/SVG/1.1/DTD/svg11.dtd">
<!-- Creator: CorelDRAW 2020 (64 Bit Versão de avaliação) -->
<svg xmlns="http://www.w3.org/2000/svg" xml:space="preserve" width="283.242mm" height="87.022mm" version="1.1" style="shape-rendering:geometricPrecision; text-rendering:geometricPrecision; image-rendering:optimizeQuality; fill-rule:evenodd; clip-rule:evenodd"
viewBox="0 0 28324.2 8702.2"
 xmlns:xlink="http://www.w3.org/1999/xlink"
 xmlns:xodm="http://www.corel.com/coreldraw/odm/2003">
 <defs>
  <style type="text/css">
   <![CDATA[
    .fil0 {fill:#373435;fill-rule:nonzero;fill-opacity:0.309804}
   ]]>
  </style>
 </defs>
 <g id="Camada_x0020_1">
  <metadata id="CorelCorpID_0Corel-Layer"/>
  <g id="_3121402750288">
   <path class="fil0" d="M12943.13 5130.95l0 -121.16c-72.1,63.46 -125.48,95.18 -160.82,95.18 -19.49,0 -29.58,-10.09 -29.58,-29.58 0,-8.63 4.32,-25.94 12.27,-52.65 29.57,-85.09 43.98,-166.55 43.98,-245.91 0,-113.94 -24.5,-232.92 -73.56,-355.49 -20.9,-63.47 -46.88,-95.22 -77.87,-95.22 -15.85,0 -28.12,7.22 -38.21,20.94 -46.15,54.06 -90.17,129.79 -132.69,227.88 -41.84,97.35 -76.46,204.07 -103.86,318.73 -27.39,115.39 -41.11,217.07 -41.11,305.79 0,168 50.48,251.68 152.15,251.68 50.51,0 118.29,-30.3 203.38,-90.17 85.1,-59.84 167.32,-137.02 245.92,-230.02zm65.64 -1002.41l20.9 -86.54c43.98,-192.57 82.91,-349.04 118.26,-468.02 35.34,-119.02 71.41,-219.97 108.89,-302.19 37.52,-82.92 74.28,-142.07 111.07,-178.82 59.11,-63.47 165.14,-95.22 318.74,-95.22 67.78,0 117.57,3.63 150.74,10.81 33.16,6.5 59.83,19.49 79.32,37.53 -67.79,209.84 -114.67,367.79 -140.65,472.33 -25.94,105.31 -54.79,248.82 -85.82,431.99 -48.29,299.29 -72.1,568.97 -72.1,809.84 0,158.68 12.99,323.82 39.66,495.45 25.99,170.91 69.24,361.3 129.11,571.15 -75,52.65 -146.41,96.63 -214.92,133.42 -67.79,36.76 -132.7,65.61 -193.99,86.55 -61.29,20.9 -115.39,31.71 -162.27,31.71 -81.46,0 -139.16,-40.39 -173.05,-120.44 -28.12,-66.33 -46.88,-118.98 -54.83,-159.36 -8.63,-39.67 -23.8,-151.46 -44.7,-334.64 -188.95,197.62 -369.25,352.67 -542.3,465.88 -172.36,113.22 -310.1,170.18 -412.5,170.18 -118.3,0 -215.65,-48.29 -290.62,-144.92 -75.73,-95.94 -113.25,-220.7 -113.25,-372.84 0,-136.33 29.57,-288.48 87.99,-455.07 58.43,-167.32 139.2,-328.83 241.6,-485.33 67.78,-102.4 137.02,-189.67 208.39,-260.35 70.69,-71.38 151.46,-137.02 241.59,-197.58 163.73,-107.44 300.02,-160.82 410.33,-160.82 53.38,0 131.28,35.34 234.41,105.3zm1799.25 1279.31c64.92,-43.98 114.67,-87.96 147.87,-131.25 75,-92.31 132.66,-197.58 173.77,-316.6 31.76,-77.87 57.7,-164.41 75.73,-261.04 18.04,-95.9 27.4,-186.04 27.4,-268.99 0,-77.87 -15.86,-116.84 -48.3,-116.84 -45.43,0 -113.94,99.53 -206.97,299.29 -54.83,120.43 -99.54,240.14 -134.15,359.12 -34.62,119.71 -51.93,222.84 -51.93,308.65 0,30.3 5.77,72.14 16.58,127.66zm4.36 67.78c15.85,84.4 70.65,126.93 165.14,126.93 105.26,0 242.32,-62.01 411.77,-186.04 98.08,-72.14 164.42,-108.17 198.31,-108.17 41.84,0 81.5,11.54 118.29,33.89 36.76,22.36 54.79,45.43 54.79,69.93 0,25.25 -20.17,58.42 -61.28,99.53 -74.28,74.28 -160.83,147.1 -257.46,218.52 -97.35,71.37 -191.12,130.52 -281.25,177.4 -90.14,47.61 -180.31,85.09 -270.44,112.49 -90.14,27.39 -170.18,41.11 -240.87,41.11 -175.95,0 -316.6,-50.47 -421.86,-151.46 -106.03,-100.95 -158.65,-235.06 -158.65,-403.1 0,-128.38 28.12,-273.31 83.64,-434.86 55.52,-161.54 130.52,-312.97 225.01,-454.34 111.04,-165.14 248.06,-302.15 409.6,-412.5 200.48,-132.66 391.6,-199.03 574.78,-199.03 132.7,0 236.51,41.84 311.51,126.2 75.73,83.64 113.22,199.03 113.22,346.17 0,113.94 -29.54,233.65 -89.41,357.68 -59.84,124.02 -148.56,243.73 -265.4,357.71 -95.9,95.9 -189.63,170.91 -281.94,224.25 -92.32,54.1 -173.09,80.77 -242.32,80.77 -31.03,0 -62.74,-7.91 -95.18,-23.08z"/>
   <path class="fil0" d="M1564.04 1869.75l-21.62 90.86c-7.22,31.03 -12.99,56.97 -18.76,79.36 -5.77,21.63 -10.09,40.35 -13.72,56.97 -3.59,15.86 -7.18,32.44 -11.54,49.75 -101.67,433.4 -183.17,704.57 -245.18,813.46 -28.85,47.57 -70.65,90.86 -126.93,129.07 -178.1,115.39 -317.29,173.09 -418.96,173.09 -70.69,0 -129.84,-25.94 -178.86,-77.18 -48.33,-51.2 -72.83,-115.35 -72.83,-191.08 0,-138.47 60.57,-393.02 181.73,-765.14 36.75,-118.29 69.96,-221.42 100.22,-308.69 30.3,-87.23 67.09,-186.03 109.62,-295.66 43.29,-110.34 91.59,-227.15 146.42,-351.21 54.06,-124.03 92.31,-211.3 114.66,-262.5 -185.35,26.71 -364.21,40.39 -535.84,40.39 -173.09,0 -259.59,-60.56 -259.59,-181.72 0,-77.14 56.24,-175.23 168.73,-294.93 76.45,-77.91 146.41,-131.25 211.29,-161.55 64.92,-30.3 142.79,-45.43 234.38,-45.43 59.14,0 140.64,1.41 243.04,5.04 103.13,3.59 245.91,12.27 429.09,25.22l59.11 4.36 57 6.49c155.02,7.91 256.73,18 306.48,29.54 49.02,10.85 91.58,32.48 126.2,64.91 28.12,32.44 42.53,69.96 42.53,111.8 0,44.71 -8.64,90.86 -25.95,137.71 -18.03,47.61 -38.93,82.22 -64.19,104.58 -35.34,39.66 -133.38,72.13 -295.66,98.8 -14.44,0 -28.84,1.46 -44.7,4.32l-41.84 8.67c33.89,33.9 50.47,71.38 50.47,112.49 0,39.66 -20.17,125.48 -59.83,256 -12.99,32.48 -43.29,138.47 -92.31,318.78l-31.76 126.89 -20.9 86.54zm1055.06 731.28l-8.67 42.53c0,23.8 -2.86,58.42 -8.63,103.12 -5.77,69.24 -13.72,125.48 -23.08,169.46 -10.13,43.29 -24.53,79.36 -44.74,108.2 -19.45,28.85 -46.12,59.84 -80.05,92.28 -102.4,94.49 -206.25,141.37 -310.07,141.37 -85.09,0 -147.14,-31.02 -187.53,-93.04 -39.66,-62.01 -59.83,-161.54 -59.83,-300.01 0,-109.59 12.26,-245.19 36.76,-406.74 24.53,-160.78 54.83,-305.74 90.17,-434.12l16.58 -54.8c0,-7.94 4.32,-25.98 12.99,-52.65 51.89,-191.81 100.22,-333.18 143.48,-425.49 44.01,-92.27 96.67,-166.55 158.68,-222.83 54.79,-43.98 116.8,-65.61 186.04,-65.61 100.26,0 160.82,60.56 181.72,181.72 19.48,-16.58 38.97,-36.75 57.01,-59.14 40.34,-49.03 72.1,-82.19 94.45,-98.05 23.08,-16.62 49.02,-24.53 78.59,-24.53 120.44,0 181.04,119.71 181.04,359.13 0,130.52 -14.45,257.45 -42.57,380.06 -28.12,122.57 -63.46,222.83 -105.99,299.98 -43.29,77.18 -85.82,116.11 -127.66,116.11 -46.88,0 -69.96,-87.99 -69.96,-263.94 0,-93.04 -5.04,-165.87 -15.85,-218.52 -10.09,-52.65 -26.67,-93.73 -49.06,-123.3 -42.53,78.6 -69.92,258.9 -82.92,540.85 -10.08,163 -16.58,266.12 -20.9,307.96zm2259.37 -453.62l-40.39 12.27c-100.95,28.12 -173.81,42.53 -219.24,42.53 -54.79,0 -82.19,-14.41 -82.19,-42.53 0,-9.4 11.54,-36.07 33.89,-77.91 78.6,-120.43 117.53,-232.92 117.53,-338.95 0,-60.56 -10.81,-116.08 -31.71,-166.55 -20.94,-49.79 -44.02,-75 -69.96,-75 -22.35,0 -56.97,23.8 -103.13,72.1 -131.24,142.06 -235.09,287.75 -311.55,437.03 -77.14,149.28 -115.35,282.67 -115.35,399.51 0,77.14 15.85,141.33 47.57,192.53 31.75,50.48 71.41,75.73 119.71,75.73 40.38,0 116.84,-43.25 228.6,-130.52 112.52,-87.27 238,-202.66 377.88,-345.44l56.97 -46.16 -8.63 -8.64zm-125.48 483.15l0 8.68 -8.67 -8.68c-131.25,153.64 -250.96,279.81 -360.58,377.16 -108.89,98.09 -209.84,171.64 -302.15,220.7 -92.32,48.29 -176.68,72.82 -254.55,72.82 -157.96,0 -287.75,-52.65 -390.88,-158.64 -103.12,-105.3 -154.32,-238.69 -154.32,-400.96 0,-99.54 25.21,-217.79 75.73,-354.81 51.2,-136.29 120.43,-269.72 209.11,-400.96 147.83,-213.48 333.91,-395.2 558.2,-544.48 230.74,-153.6 452.85,-230.05 667.05,-230.05 180.3,0 328.13,36.79 444.21,110.34 116.12,74.28 174.54,167.32 174.54,279.81 0,82.95 -28.85,170.18 -86.54,263.22 75.73,0 124.02,7.94 143.51,24.53 19.48,15.85 29.57,53.38 29.57,113.21 0,-5.77 -3.63,23.08 -10.09,86.54 -7.94,139.2 -11.53,269.72 -11.53,390.88 0,63.46 0.68,111.76 2.14,144.2 1.45,32.48 4.31,69.96 8.67,111.8 3.59,42.56 7.91,76.45 12.26,101.67 11.54,66.37 29.54,131.98 54.8,196.89 -84.37,82.92 -165.14,144.24 -243.05,182.45 -77.14,38.93 -156.47,58.42 -236.51,58.42 -217.07,0 -325.24,-181.76 -325.24,-545.2 0,-41.84 1.42,-75.01 4.32,-99.54zm2098.54 -1423.54c106.76,4.32 191.85,35.34 255.31,93.04 62.74,57.69 94.46,134.84 94.46,232.19 0,84.41 -24.5,169.5 -72.83,255.31 -49.02,85.82 -109.62,156.47 -183.9,211.3 -74.28,54.79 -148.55,82.19 -222.83,82.19 -43.98,0 -65.61,-15.13 -65.61,-46.16 0,-11.54 8.64,-36.03 25.22,-74.28 55.52,-93 82.95,-199.75 82.95,-320.91 0,-60.57 -7.22,-90.86 -20.94,-90.86 -19.44,0 -46.88,25.25 -83.64,75.72 -36.06,51.2 -66.36,111.08 -91.58,179.59 -43.29,108.17 -78.6,224.28 -107.44,346.13 -28.13,122.61 -42.57,226.46 -42.57,310.83 0,95.18 14.44,170.91 43.29,225.74 28.12,54.79 68.51,82.18 120.4,82.18 47.61,0 111.07,-25.21 191.12,-75.73 80.05,-50.47 155.05,-113.21 226.46,-187.49 29.54,-38.21 55.52,-56.97 77.87,-56.97 33.89,0 50.47,18.76 50.47,56.97 0,173.81 -67.05,331.01 -201.93,471.65 -93,93 -199.03,168.01 -319.46,224.98 -119.71,56.97 -227.88,85.81 -323.06,85.81 -167.31,0 -305.78,-52.61 -416.86,-158.64 -111.03,-105.27 -166.55,-238.69 -166.55,-399.51 0,-160.1 35.31,-328.86 105.99,-505.54 71.41,-176.68 168.04,-344.68 290.62,-504.09 123.34,-159.37 262.49,-292.07 418.27,-399.51 112.53,-75.73 222.11,-113.94 328.86,-113.94l7.91 0zm-910.09 2284.62c-124.03,0 -186.04,-20.21 -186.04,-61.29 0,-32.48 14.4,-64.91 42.53,-97.35 28.15,-32.48 65.64,-57.7 111.79,-76.46 46.89,-19.49 94.46,-28.85 144.24,-28.85 78.6,0 144.24,24.53 195.44,72.83 51.93,49.06 77.14,112.52 77.14,191.12 0,56.97 -23.07,115.39 -70.68,175.95 -46.85,60.6 -108.17,110.35 -182.45,150.01 -75,39.66 -147.1,59.15 -217.79,59.15 -41.07,0 -77.14,-9.4 -108.89,-28.85 -31.72,-18.76 -47.57,-39.66 -47.57,-62.05 0,-15.86 15.13,-26.67 44.7,-33.89 123.3,-39.67 189.67,-126.21 197.58,-260.32zm2989.91 -1344.23l-40.38 12.27c-100.95,28.12 -173.82,42.53 -219.25,42.53 -54.79,0 -82.18,-14.41 -82.18,-42.53 0,-9.4 11.54,-36.07 33.89,-77.91 78.59,-120.43 117.53,-232.92 117.53,-338.95 0,-60.56 -10.81,-116.08 -31.71,-166.55 -20.94,-49.79 -44.02,-75 -69.96,-75 -22.36,0 -56.97,23.8 -103.13,72.1 -131.25,142.06 -235.1,287.75 -311.55,437.03 -77.15,149.28 -115.36,282.67 -115.36,399.51 0,77.14 15.86,141.33 47.57,192.53 31.75,50.48 71.41,75.73 119.71,75.73 40.39,0 116.84,-43.25 228.6,-130.52 112.53,-87.27 238.01,-202.66 377.89,-345.44l56.97 -46.16 -8.64 -8.64zm-125.47 483.15l0 8.68 -8.68 -8.68c-131.24,153.64 -250.95,279.81 -360.57,377.16 -108.9,98.09 -209.85,171.64 -302.16,220.7 -92.31,48.29 -176.68,72.82 -254.55,72.82 -157.95,0 -287.75,-52.65 -390.87,-158.64 -103.13,-105.3 -154.33,-238.69 -154.33,-400.96 0,-99.54 25.22,-217.79 75.73,-354.81 51.2,-136.29 120.44,-269.72 209.12,-400.96 147.83,-213.48 333.91,-395.2 558.19,-544.48 230.74,-153.6 452.85,-230.05 667.05,-230.05 180.31,0 328.14,36.79 444.22,110.34 116.11,74.28 174.53,167.32 174.53,279.81 0,82.95 -28.84,170.18 -86.54,263.22 75.73,0 124.03,7.94 143.51,24.53 19.49,15.85 29.58,53.38 29.58,113.21 0,-5.77 -3.63,23.08 -10.09,86.54 -7.95,139.2 -11.54,269.72 -11.54,390.88 0,63.46 0.69,111.76 2.14,144.2 1.45,32.48 4.32,69.96 8.67,111.8 3.6,42.56 7.91,76.45 12.27,101.67 11.54,66.37 29.53,131.98 54.79,196.89 -84.36,82.92 -165.14,144.24 -243.05,182.45 -77.14,38.93 -156.46,58.42 -236.51,58.42 -217.06,0 -325.23,-181.76 -325.23,-545.2 0,-41.84 1.41,-75.01 4.32,-99.54z"/>
   <path class="fil0" d="M18956.09 6323.06l-68.51 169.46c-90.86,217.07 -175.95,433.44 -253.86,649.05 -38.21,104.58 -95.18,286.3 -172.36,545.93 116.84,-10.12 274.07,-34.62 470.92,-74.28 126.93,-25.25 203.39,-38.24 230.78,-38.24 49.02,0 73.55,19.48 73.55,59.14 0,46.89 -27.39,111.76 -81.49,196.17 -54.07,83.64 -114.67,155.74 -182.45,217.06 -46.88,43.25 -115.39,73.55 -206.98,90.86 -91.59,16.59 -234.37,25.22 -429.08,25.22 -181,0 -321.65,-5.77 -419.69,-16.58 -1.45,0 -25.26,-7.19 -69.96,-21.63 -80.05,-33.89 -120.43,-103.85 -120.43,-211.29 0,-77.15 22.35,-219.25 66.33,-424.77 44.7,-205.53 108.89,-461.52 193.29,-767.31 191.81,-681.49 336.05,-1103.36 433.41,-1263.45 30.3,-55.52 69.23,-98.08 116.11,-128.34 46.85,-30.3 111.04,-53.38 191.81,-70.69 78.6,-16.58 168.77,-25.26 271.17,-25.26 95.9,0 162.96,12.27 201.9,36.8 38.97,24.53 57.69,67.06 57.69,127.65 0,57.66 -25.22,165.87 -75.73,324.51 -50.47,157.92 -126.16,358.4 -226.42,599.99zm769.48 1836.05c-63.46,-4.31 -121.16,-33.16 -173.08,-86.54 -51.93,-56.24 -88.72,-117.53 -111.08,-183.17 -21.62,-65.61 -32.44,-149.97 -32.44,-254.55 0,-232.23 43.26,-494.73 129.8,-787.52 86.54,-292.07 184.63,-504.09 294.25,-635.34 43.25,-54.79 103.85,-82.19 180.99,-82.19 81.5,0 147.11,37.49 196.89,111.77 49.75,75 75.01,172.36 75.01,293.52 0,178.85 -25.99,388.69 -77.19,628.84 -51.2,240.86 -122.57,490.37 -215.61,750 -36.07,103.85 -81.5,174.53 -134.88,211.29 -36.03,22.35 -79.32,33.89 -128.34,33.89l-4.32 0zm253.82 -2128.84c-131.97,-4.32 -198.3,-83.64 -198.3,-238.69 0,-77.18 19.45,-167.32 57.7,-269.72 38.93,-101.67 82.91,-177.4 131.97,-226.42 25.22,-27.44 51.2,-46.16 77.14,-57.7 25.98,-10.81 59.15,-16.58 100.26,-16.58 69.92,0 121.85,17.31 154.33,51.89 33.16,34.62 49.75,91.58 49.75,171.63 0,100.26 -17.31,195.44 -51.93,284.89 -33.89,89.41 -80.05,161.51 -137.74,217.06 -57.7,55.52 -116.81,83.64 -176.68,83.64l-6.5 0zm1814.43 320.19l33.89 -64.88c35.34,-73.59 64.19,-121.88 87.27,-145.69 23.07,-23.8 54.79,-36.07 94.45,-36.07 115.39,0 173.08,130.56 173.08,390.88 0,75.73 -5.76,141.33 -16.58,196.16 -11.54,55.52 -30.3,108.17 -56.97,158.65 -32.44,67.78 -76.45,144.96 -131.24,231.5 -54.8,86.51 -117.54,178.09 -186.77,274.76 -69.96,95.91 -144.24,193.26 -222.83,289.89 -140.65,178.86 -259.63,310.11 -356.99,393.02 -97.35,82.95 -178.85,124.75 -245.18,124.75 -121.89,0 -209.16,-74.28 -261.77,-223.52 -36.07,-94.49 -69.96,-208.43 -100.26,-341.86 -30.3,-133.38 -53.38,-268.99 -70.69,-406 -16.58,-137.02 -25.22,-269.72 -25.22,-397.34 0,-177.4 15.86,-326.68 47.61,-448.57 31.71,-121.16 74.97,-201.2 129.8,-239.41 49.02,-28.13 100.94,-41.84 155.77,-41.84 64.88,0 125.48,10.08 182.45,30.3 56.97,20.9 101.67,50.47 134.11,89.41 29.58,29.57 51.93,68.5 66.37,116.84 15.13,49.02 24.49,122.57 29.58,221.38 5.04,98.81 7.18,235.83 7.18,409.64l0 107.44 0 201.9 0 238 8.67 0c26.67,-60.6 48.3,-106.72 65.61,-139.2 44.7,-88.68 131.97,-276.21 261.8,-561.78 26.67,-59.84 77.87,-173.05 152.15,-337.5l44.71 -90.86zm1285.11 1143.06l-8.67 42.52c0,23.81 -2.87,58.42 -8.64,103.13 -5.77,69.23 -13.71,125.48 -23.08,169.45 -10.12,43.29 -24.53,79.36 -44.74,108.21 -19.45,28.85 -46.12,59.84 -80.05,92.28 -102.39,94.49 -206.25,141.37 -310.06,141.37 -85.09,0 -147.14,-31.03 -187.53,-93.04 -39.66,-62.01 -59.83,-161.55 -59.83,-300.02 0,-109.58 12.26,-245.18 36.75,-406.73 24.53,-160.78 54.83,-305.75 90.18,-434.13l16.58 -54.79c0,-7.95 4.32,-25.98 12.99,-52.65 51.89,-191.81 100.22,-333.18 143.47,-425.49 44.02,-92.28 96.67,-166.56 158.69,-222.84 54.79,-43.98 116.8,-65.6 186.03,-65.6 100.26,0 160.82,60.56 181.72,181.72 19.49,-16.58 38.98,-36.76 57.01,-59.15 40.35,-49.02 72.1,-82.19 94.45,-98.04 23.08,-16.62 49.03,-24.53 78.6,-24.53 120.43,0 181.03,119.71 181.03,359.12 0,130.52 -14.44,257.45 -42.56,380.07 -28.12,122.57 -63.47,222.83 -105.99,299.97 -43.29,77.18 -85.82,116.12 -127.66,116.12 -46.88,0 -69.96,-88 -69.96,-263.95 0,-93.04 -5.04,-165.86 -15.85,-218.51 -10.09,-52.66 -26.67,-93.73 -49.07,-123.3 -42.52,78.59 -69.92,258.9 -82.91,540.84 -10.09,163 -16.58,266.13 -20.9,307.97zm2095.68 -1480.56c209.84,0 315.11,24.53 315.11,73.55 0,56.29 -47.57,86.55 -142.06,90.86 -113.94,7.23 -220.66,39.7 -319.47,97.36 -98.81,57.7 -186.04,137.06 -263.22,237.28 -77.14,100.22 -137.01,212.74 -180.27,338.95 -42.56,125.48 -64.19,258.17 -64.19,398.06 0,153.6 36.03,277.66 108.17,371.39 72.1,93.76 165.87,140.64 281.26,140.64 107.44,0 201.2,-54.83 281.94,-165.13 80.08,-110.35 120.43,-238.73 120.43,-385.84 0,-120.43 -25.21,-232.92 -74.96,-338.22 -49.79,-105.27 -122.61,-193.99 -218.52,-266.09 -41.11,-32.48 -61.32,-55.55 -61.32,-69.96 0,-19.49 28.84,-50.47 86.54,-90.86 64.92,-44.02 137.02,-80.77 217.79,-110.35 80.05,-29.57 147.83,-44.7 202.66,-44.7 63.46,0 123.3,16.58 180.27,49.75 56.97,33.16 107.48,80.77 151.46,142.06 43.25,61.32 76.45,131.97 100.22,212.02 23.08,79.32 34.62,164.45 34.62,255.31 0,149.28 -28.12,297.84 -84.37,443.49 -56.24,146.42 -130.52,264.67 -222.11,354.81 -118.25,114.66 -261.04,208.43 -427.63,281.25 -166.59,72.83 -325.96,108.9 -476.69,108.9 -146.42,0 -291.34,-25.26 -436.31,-76.46 -144.24,-50.47 -258.18,-117.53 -343.27,-200.48 -112.48,-113.21 -168.73,-273.31 -168.73,-480.29 0,-163.68 40.39,-327.37 120.44,-491.09 80.04,-163.69 188.94,-312.25 326.64,-445.67 137.06,-133.43 288.48,-237.97 454.35,-315.15 165.13,-77.14 332.45,-115.39 501.22,-115.39zm1565.6 2215.39c82.92,-4.32 158.65,-44.71 226.43,-121.16 68.51,-77.15 102.4,-160.82 102.4,-250.23 0,-62.02 -20.17,-111.76 -60.56,-147.83 -43.98,-43.98 -141.34,-87.27 -293.52,-129.11 -224.29,-64.88 -369.94,-137.02 -437.72,-217.79 -63.47,-64.88 -95.22,-142.06 -95.22,-232.2 0,-161.54 59.15,-323.78 176.68,-486.05 117.57,-161.55 267.58,-294.25 450.75,-398.1 183.17,-103.08 367.76,-155.01 553.11,-155.01 90.13,0 174.5,20.9 253.86,63.46 78.59,42.53 141.33,98.05 187.49,168.01 46.88,69.96 69.96,145.69 69.96,227.15 0,80.05 -25.26,163.72 -75.73,249.54 -51.2,85.82 -114.66,157.19 -191.85,214.16 -76.41,56.97 -149.28,85.82 -218.47,85.82 -39.66,0 -73.59,-8.64 -102.44,-25.22 -28.81,-17.31 -43.25,-35.34 -43.25,-54.83 0,-20.17 5.77,-49.02 17.3,-87.23 31.72,-121.16 47.61,-226.46 47.61,-316.6 0,-88.72 -26.71,-173.08 -80.77,-251.68 -68.51,47.61 -113.94,85.82 -134.88,113.94 -54.06,62.01 -95.18,131.97 -124.75,210.57 -32.44,80.77 -49.02,156.5 -49.02,227.88 0,50.51 11.54,91.58 35.34,121.16 23.08,30.3 61.29,56.24 113.94,77.18 52.61,21.62 132.66,44.7 240.14,69.96 178.82,43.98 305.02,85.82 377.89,126.89 17.31,10.13 43.25,30.3 78.59,61.33 53.38,57.69 80.05,132.69 80.05,224.28 0,97.32 -30.3,195.4 -90.86,294.93 -60.6,99.54 -154.33,201.94 -281.25,307.2 -134.84,114.67 -269.72,196.17 -403.15,245.19 -134.11,49.79 -281.94,74.28 -444.21,74.28 -155.78,0 -279.08,-30.99 -368.53,-93 -89.4,-62.02 -134.11,-146.42 -134.11,-253.86 0,-76.46 29.57,-153.6 88.68,-231.47 59.15,-78.63 132.7,-142.1 219.97,-191.12 88,-49.75 174.5,-74.28 258.18,-74.28 63.46,0 95.18,14.41 95.18,42.53 0,13.71 -8.64,36.79 -26.67,69.23 -54.11,98.81 -81.5,189.67 -81.5,273.35 0,59.11 21.62,115.35 64.91,168.73z"/>
  </g>
 </g>
</svg>
