<?xml version="1.0" encoding="UTF-8"?>
<!DOCTYPE svg PUBLIC "-//W3C//DTD SVG 1.1//EN" "http://www.w3.org/Graphics/SVG/1.1/DTD/svg11.dtd">
<!-- Creator: CorelDRAW 2020 (64 Bit Versão de avaliação) -->
<svg xmlns="http://www.w3.org/2000/svg" xml:space="preserve" width="200mm" height="160mm" version="1.1" style="shape-rendering:geometricPrecision; text-rendering:geometricPrecision; image-rendering:optimizeQuality; fill-rule:evenodd; clip-rule:evenodd"
viewBox="0 0 20000 16000"
 xmlns:xlink="http://www.w3.org/1999/xlink"
 xmlns:xodm="http://www.corel.com/coreldraw/odm/2003">
 <defs>
  <style type="text/css">
   <![CDATA[
    .str0 {stroke:#FEFEFE;stroke-width:7.62;stroke-miterlimit:22.9256}
    .fil0 {fill:#FEFEFE}
    .fil1 {fill:#FEFEFE;fill-rule:nonzero}
   ]]>
  </style>
 </defs>
 <g id="Camada_x0020_1">
  <metadata id="CorelCorpID_0Corel-Layer"/>
  <path class="fil0" d="M7821.27 1884.74l-6181.53 0c-143.35,0 -259.46,-116.1 -259.46,-259.46 0,-143.35 116.1,-259.46 259.46,-259.46l6226.94 0.01c143.35,0 259.46,-116.1 259.46,-259.46 0,-429.88 -348.48,-778.37 -778.37,-778.37l-5967.49 0c-573.24,0 -1037.82,464.6 -1037.82,1037.83l0 5189.12c0,573.24 464.58,1037.83 1037.83,1037.83l6440.98 -0.01c454.38,0 823.78,-349.13 823.78,-778.36l0 -4151.3c0,-429.24 -369.4,-778.37 -823.78,-778.37zm-732.96 3372.93c-286.53,0 -518.91,-232.38 -518.91,-518.91 0,-286.54 232.38,-518.91 518.91,-518.91 286.53,0 518.91,232.37 518.91,518.91 0,286.53 -232.38,518.91 -518.91,518.91z"/>
  <polygon class="fil1 str0" points="7259.48,15714.74 5884.53,15714.74 12199.58,328.01 13582.81,328.01 "/>
  <path class="fil0" d="M18820.62 8927.01l-7269.55 0c-403.02,0 -728.77,325.74 -728.77,727.26l0 5333.23c0,401.5 325.75,727.25 728.77,727.25l7269.55 0c403.02,0 728.77,-325.76 728.77,-727.26l0 -5333.22c0,-401.51 -325.75,-727.26 -728.77,-727.26zm-7178.64 727.26l7087.73 0c50,0 90.91,40.91 90.91,90.91l0 636.35 -7269.55 0 0 -636.35c0,-50 40.91,-90.91 90.91,-90.91zm7087.73 5333.22l-7087.73 0c-50,0 -90.91,-40.91 -90.91,-90.91l0 -2575.7 7269.55 0 0 2575.7c0,50 -40.91,90.91 -90.91,90.91zm-4998.38 -1515.12l0 606.04c0,100 -81.82,181.82 -181.82,181.82l-1090.88 0c-100,0 -181.82,-81.82 -181.82,-181.82l0 -606.04c0,-100 81.82,-181.82 181.82,-181.82l1090.88 0.01c100,0 181.82,81.81 181.82,181.81l0 0zm2909.03 0l0 606.04c0,100 -81.82,181.82 -181.82,181.82l-2060.56 0c-100,0 -181.82,-81.82 -181.82,-181.82l0 -606.04c0,-100 81.82,-181.82 181.82,-181.82l2060.56 0.01c100,0 181.82,81.81 181.82,181.81l0 0z"/>
 </g>
</svg>
