<?xml version="1.0" encoding="UTF-8"?>
<!DOCTYPE svg PUBLIC "-//W3C//DTD SVG 1.1//EN" "http://www.w3.org/Graphics/SVG/1.1/DTD/svg11.dtd">
<!-- Creator: CorelDRAW 2020 (64 Bit Versão de avaliação) -->
<svg xmlns="http://www.w3.org/2000/svg" xml:space="preserve" width="200mm" height="160mm" version="1.1" style="shape-rendering:geometricPrecision; text-rendering:geometricPrecision; image-rendering:optimizeQuality; fill-rule:evenodd; clip-rule:evenodd"
viewBox="0 0 20000 16000"
 xmlns:xlink="http://www.w3.org/1999/xlink"
 xmlns:xodm="http://www.corel.com/coreldraw/odm/2003">
 <defs>
  <style type="text/css">
   <![CDATA[
    .fil0 {fill:#FEFEFE}
   ]]>
  </style>
 </defs>
 <g id="Camada_x0020_1">
  <metadata id="CorelCorpID_0Corel-Layer"/>
  <g id="_3121052457264">
   <path class="fil0" d="M17744.22 788.74l-15534.56 0c-861.23,0 -1557.34,696.1 -1557.34,1554.11l0 11396.76c0,857.99 696.11,1554.11 1557.34,1554.11l15534.56 -0.02c861.23,0 1557.34,-696.11 1557.34,-1554.1l0 -11396.75c0,-857.99 -696.11,-1554.11 -1557.34,-1554.11zm-15340.3 1554.11l15146.04 0c106.84,0 194.26,87.42 194.26,194.26l0 1359.84 -15534.56 0 0 -1359.84c0,-106.84 87.41,-194.26 194.26,-194.26zm15146.04 11396.75l-15146.04 0c-106.85,0 -194.26,-87.42 -194.26,-194.27l0 -5504.11 15534.56 0 0 5504.11c0,106.85 -87.42,194.27 -194.26,194.27zm-10681.23 -3237.72l0 1295.08c0,213.7 -174.83,388.53 -388.53,388.53l-2331.14 0c-213.7,0 -388.54,-174.83 -388.54,-388.53l0 -1295.08c0,-213.69 174.84,-388.53 388.54,-388.53l2331.14 0.02c213.7,0 388.53,174.83 388.53,388.53l0 -0.02zm6216.42 0l0 1295.08c0,213.7 -174.84,388.53 -388.53,388.53l-4403.29 0c-213.7,0 -388.53,-174.83 -388.53,-388.53l0 -1295.08c0,-213.69 174.83,-388.53 388.53,-388.53l4403.29 0.02c213.69,0 388.53,174.83 388.53,388.53l0 -0.02z"/>
  </g>
 </g>
</svg>
